<svg xmlns="http://www.w3.org/2000/svg" width="266.868" height="155.448" fill="none" viewBox="0 0 266.868 155.448"><path fill="#34a853" d="M266.122 149.56c-.087-.546-.17-1.086-.261-1.626a132.867 132.867 0 0 0-2.034-9.928 133.566 133.566 0 0 0-11.303-29.985 135.285 135.285 0 0 0-9.738-15.887 134.237 134.237 0 0 0-14.709-17.325A134.646 134.646 0 0 0 204.4 56.04c.051-.084.095-.175.147-.26 2.692-4.651 5.392-9.297 8.084-13.948l7.897-13.623c1.895-3.26 3.787-6.525 5.67-9.785a12.276 12.276 0 0 0 .69-10.93 12.163 12.163 0 0 0-5.027-5.771 12.353 12.353 0 0 0-5.218-1.678 12.471 12.471 0 0 0-2.311.02 12.237 12.237 0 0 0-9.349 6.044c-1.891 3.259-3.783 6.525-5.67 9.784l-7.897 13.624c-2.692 4.651-5.392 9.296-8.084 13.948-.294.507-.591 1.015-.885 1.529-.408-.163-.812-.326-1.22-.482-14.844-5.66-30.95-8.756-47.783-8.756-.46 0-.916 0-1.38.006-14.967.15-29.347 2.752-42.763 7.423-1.55.54-3.085 1.113-4.607 1.711-.274-.474-.555-.95-.825-1.424-2.692-4.652-5.392-9.297-8.084-13.949l-7.897-13.623a4140.11 4140.11 0 0 1-5.67-9.785A12.234 12.234 0 0 0 50.558.05c-1.832.157-3.62.723-5.222 1.68a12.214 12.214 0 0 0-4.25 4.235 12.045 12.045 0 0 0-.773 1.535 12.31 12.31 0 0 0-.38 8.536c.269.82.618 1.62 1.066 2.394 1.895 3.26 3.786 6.525 5.67 9.784 2.636 4.542 5.269 9.083 7.901 13.624 2.692 4.651 5.388 9.296 8.08 13.948.02.039.048.078.068.117a134.67 134.67 0 0 0-15.475 11.21 135.198 135.198 0 0 0-23.142 25.034 133.16 133.16 0 0 0-9.737 15.887A133.682 133.682 0 0 0 3.061 138.02a136.29 136.29 0 0 0-2.034 9.928c-.091.54-.175 1.086-.258 1.626A130.315 130.315 0 0 0 0 155.448h266.868a136.2 136.2 0 0 0-.765-5.875z"/><path fill="#202124" d="M202.85 118.54c5.34-3.555 6.117-11.78 1.732-18.37-4.38-6.59-12.262-9.05-17.599-5.495-5.34 3.555-6.117 11.78-1.732 18.369 4.38 6.59 12.262 9.05 17.599 5.495zM81.851 113.067c4.385-6.59 3.608-14.814-1.732-18.369-5.34-3.555-13.219-1.095-17.604 5.495-4.38 6.59-3.604 14.814 1.733 18.369 5.34 3.555 13.222 1.095 17.603-5.495z"/></svg>